<svg width="18" height="14" viewBox="0 0 18 14" fill="none" xmlns="http://www.w3.org/2000/svg">
<path id="cached" d="M8.95909 13.544C10.7864 13.544 12.3409 12.9099 13.6227 11.6418C14.9045 10.3736 15.5455 8.82585 15.5455 6.99858V6.8554L16.8545 8.16449L18 7.01903L14.7273 3.74631L11.4545 7.01903L12.6 8.16449L13.9091 6.8554V6.99858C13.9091 8.36222 13.4284 9.52131 12.467 10.4759C11.5057 11.4304 10.3364 11.9077 8.95909 11.9077C8.60455 11.9077 8.25682 11.8668 7.91591 11.7849C7.575 11.7031 7.24091 11.5804 6.91364 11.4168L5.68636 12.644C6.20455 12.944 6.73636 13.169 7.28182 13.319C7.82727 13.469 8.38636 13.544 8.95909 13.544ZM3.27273 10.2509L6.54545 6.97813L5.4 5.83267L4.09091 7.14176V6.99858C4.09091 5.63494 4.57159 4.47585 5.53295 3.52131C6.49432 2.56676 7.66364 2.08949 9.04091 2.08949C9.39545 2.08949 9.74318 2.1304 10.0841 2.21222C10.425 2.29403 10.7591 2.41676 11.0864 2.5804L12.3136 1.35313C11.7955 1.05313 11.2636 0.828125 10.7182 0.678125C10.1727 0.528125 9.61364 0.453125 9.04091 0.453125C7.21364 0.453125 5.65909 1.08722 4.37727 2.3554C3.09546 3.62358 2.45455 5.17131 2.45455 6.99858V7.14176L1.14545 5.83267L0 6.97813L3.27273 10.2509Z" fill="#1D4A72"/>
</svg>
