<svg width="19" height="19" viewBox="0 0 19 19" fill="none" xmlns="http://www.w3.org/2000/svg">
<path d="M13.1492 11.0491L10.9992 14.4991C10.8159 14.7824 10.5617 14.8991 10.2367 14.8491C9.91172 14.7991 9.70755 14.6074 9.62422 14.2741L8.92422 11.4741L2.09922 18.2991C1.91589 18.4824 1.68672 18.5782 1.41172 18.5866C1.13672 18.5949 0.899219 18.4991 0.699219 18.2991C0.515885 18.1157 0.424219 17.8824 0.424219 17.5991C0.424219 17.3157 0.515885 17.0824 0.699219 16.8991L7.52422 10.0491L4.72422 9.34908C4.39089 9.26574 4.19922 9.06158 4.14922 8.73658C4.09922 8.41158 4.21589 8.15741 4.49922 7.97408L7.94922 5.84908L7.64922 1.77408C7.61589 1.44074 7.74922 1.19908 8.04922 1.04908C8.34922 0.899077 8.62422 0.93241 8.87422 1.14908L11.9992 3.77408L15.7742 2.24908C16.0909 2.11574 16.3659 2.16574 16.5992 2.39908C16.8326 2.63241 16.8826 2.90741 16.7492 3.22408L15.2242 6.99908L17.8492 10.0991C18.0659 10.3491 18.0992 10.6241 17.9492 10.9241C17.7992 11.2241 17.5576 11.3574 17.2242 11.3241L13.1492 11.0491ZM0.349219 4.34908C0.249219 4.24908 0.199219 4.13241 0.199219 3.99908C0.199219 3.86574 0.249219 3.74908 0.349219 3.64908L1.64922 2.34908C1.74922 2.24908 1.86589 2.19908 1.99922 2.19908C2.13255 2.19908 2.24922 2.24908 2.34922 2.34908L3.64922 3.64908C3.74922 3.74908 3.79922 3.86574 3.79922 3.99908C3.79922 4.13241 3.74922 4.24908 3.64922 4.34908L2.34922 5.64908C2.24922 5.74908 2.13255 5.79908 1.99922 5.79908C1.86589 5.79908 1.74922 5.74908 1.64922 5.64908L0.349219 4.34908ZM14.6492 18.6491L13.3492 17.3491C13.2492 17.2491 13.1992 17.1324 13.1992 16.9991C13.1992 16.8657 13.2492 16.7491 13.3492 16.6491L14.6492 15.3491C14.7492 15.2491 14.8659 15.1991 14.9992 15.1991C15.1326 15.1991 15.2492 15.2491 15.3492 15.3491L16.6492 16.6491C16.7492 16.7491 16.7992 16.8657 16.7992 16.9991C16.7992 17.1324 16.7492 17.2491 16.6492 17.3491L15.3492 18.6491C15.2492 18.7491 15.1326 18.7991 14.9992 18.7991C14.8659 18.7991 14.7492 18.7491 14.6492 18.6491Z" fill="#1D4A72"/>
</svg>
