<svg width="100" height="30" viewBox="0 0 100 30" fill="none" xmlns="http://www.w3.org/2000/svg">
<g id="Group">
<g id="Group_2">
<g id="Group_3">
<path id="Vector" d="M11.0116 10.4106C7.43049 9.70696 4.75168 8.90398 4.75168 6.19371C4.75168 3.71689 6.89407 2.34437 10.1408 2.34437C13.6557 2.34437 15.8643 4.05133 16.2997 7.46524H19.1457C18.5431 3.04636 16.0663 0 10.0745 0C5.22023 0 1.94042 2.37583 1.94042 6.32616C1.94042 10.8444 5.55467 12.0497 9.77321 12.9868C14.058 13.9239 16.9371 14.6937 16.9371 17.9735C16.9371 20.952 14.5613 22.4586 11.2467 22.4586C6.72851 22.4586 4.25003 20.3494 3.84937 16.2997H0.902344C1.17056 21.1192 4.38413 24.8692 11.111 24.8692C16.2666 24.8692 19.9139 22.3593 19.9139 17.8725C19.9139 12.4835 15.6623 11.3444 11.01 10.4073L11.0116 10.4106Z" fill="black"/>
</g>
<g id="Group_4">
<path id="Vector_2" d="M22.5635 7.09619H25.2754V24.4025H22.5635V7.09619Z" fill="black"/>
</g>
<g id="Group_5">
<path id="Vector_3" d="M46.0333 6.69536C43.9241 6.69536 41.8496 7.79966 40.7453 9.77483H40.679C39.9423 7.76655 38.2684 6.69536 36.1608 6.69536C34.0532 6.69536 32.1443 7.90066 31.0731 9.5745H31.0068V7.09768H28.2949V24.404H31.0068V13.6258C31.0068 10.9139 33.3496 8.97351 35.4588 8.97351C37.2337 8.97351 38.4373 10.245 38.4373 12.3874V24.404H41.1492V13.6258C41.1492 10.9139 43.1575 8.97351 45.4009 8.97351C47.141 8.97351 48.5814 10.245 48.5814 12.3874V24.404H51.2933V12.2533C51.2933 8.67218 49.1178 6.69701 46.0383 6.69701L46.0333 6.69536Z" fill="black"/>
</g>
<g id="Group_6">
<path id="Vector_4" d="M62.686 6.69536C60.1761 6.69536 58.4343 7.76655 57.1297 9.54139H57.0635V7.09768H54.3516V29.9603H57.0635V22.3626H57.1297C58.5685 24.2037 60.2423 24.9073 62.5867 24.9073C67.2738 24.9073 70.1181 21.3593 70.1181 15.803C70.1181 10.2467 67.0718 6.69867 62.6877 6.69867L62.686 6.69536ZM62.3847 22.6275C58.4012 22.6275 56.8946 19.5811 56.8946 15.8328C56.8946 12.0844 58.6347 9.00496 62.4178 9.00496C65.6976 9.00496 67.3383 11.9503 67.3383 15.8328C67.3383 19.7152 65.6976 22.6275 62.3847 22.6275Z" fill="black"/>
</g>
<g id="Group_7">
<path id="Vector_5" d="M72.4326 0.468384H75.1445V24.4022H72.4326V0.468384Z" fill="black"/>
</g>
<g id="Group_8">
<path id="Vector_6" d="M85.5499 6.66058C80.6294 6.66058 77.3496 10.745 77.3496 15.7649C77.3496 20.7848 80.4291 24.8692 85.7172 24.8692C89.6327 24.8692 92.3447 22.7599 93.1476 19.0447H90.5036C89.9009 21.3874 88.2271 22.5927 85.7172 22.5927C82.2354 22.5927 80.3281 19.9156 80.1278 16.4007H93.5168C93.5168 10.6771 90.7387 6.66058 85.5499 6.66058ZM80.1956 14.3593C80.598 11.2136 82.338 8.80297 85.5516 8.80297C88.7652 8.80297 90.439 10.9122 90.6062 14.3593H80.1956Z" fill="black"/>
</g>
<g id="Group_9">
<path id="Vector_7" d="M97.102 24.8707C98.1993 24.8707 99.0887 23.9812 99.0887 22.8839C99.0887 21.7867 98.1993 20.8972 97.102 20.8972C96.0047 20.8972 95.1152 21.7867 95.1152 22.8839C95.1152 23.9812 96.0047 24.8707 97.102 24.8707Z" fill="black"/>
</g>
<g id="Group_10">
<path id="Vector_8" d="M23.9731 3.99188C25.0704 3.99188 25.9598 3.1024 25.9598 2.00513C25.9598 0.907859 25.0704 0.0183716 23.9731 0.0183716C22.8758 0.0183716 21.9863 0.907859 21.9863 2.00513C21.9863 3.1024 22.8758 3.99188 23.9731 3.99188Z" fill="black"/>
</g>
</g>
</g>
</svg>
